<svg width="966" height="1111" xmlns="http://www.w3.org/2000/svg" xmlns:xlink="http://www.w3.org/1999/xlink" xml:space="preserve" overflow="hidden"><g transform="translate(-1523 -582)"><path d="M2475.18 1137.17 2475.18 1137.17 2475.18 867.485 2472.91 864.868 2005.68 595.175 1538.44 864.868 1536.18 867.485 1536.18 1406.87 1538.44 1409.48 2005.68 1679.18 2472.91 1409.48 2475.18 1406.87 2475.18 1137.17" stroke="#000000" stroke-width="6.18786" stroke-linecap="round" stroke-linejoin="round" stroke-miterlimit="10" fill="none" fill-rule="evenodd"/><path d="M2019.18 1679.25C2019.18 1686.43 2013.35 1692.25 2006.18 1692.25 1999 1692.25 1993.18 1686.43 1993.18 1679.25 1993.18 1672.07 1999 1666.25 2006.18 1666.25 2013.35 1666.25 2019.17 1672.07 2019.18 1679.24L2015.46 1679.25C2015.46 1674.13 2011.3 1669.97 2006.18 1669.97 2001.05 1669.97 1996.89 1674.13 1996.89 1679.25 1996.89 1684.38 2001.05 1688.54 2006.18 1688.54 2011.3 1688.54 2015.46 1684.39 2015.46 1679.26Z" fill="#FFFFFF" fill-rule="evenodd"/><path d="M2015.18 1679.25C2015.18 1684.22 2010.93 1688.25 2005.68 1688.25 2000.43 1688.25 1996.18 1684.22 1996.18 1679.25 1996.18 1674.28 2000.43 1670.25 2005.68 1670.25 2010.92 1670.25 2015.18 1674.27 2015.18 1679.24Z" fill="#C74440" fill-rule="evenodd"/><path d="M1862.15 1589.24C1862.15 1596.42 1856.33 1602.24 1849.15 1602.24 1841.98 1602.24 1836.15 1596.42 1836.15 1589.24 1836.15 1582.06 1841.98 1576.24 1849.15 1576.24 1856.33 1576.24 1862.15 1582.06 1862.15 1589.23L1858.44 1589.24C1858.44 1584.11 1854.28 1579.96 1849.15 1579.96 1844.03 1579.96 1839.87 1584.11 1839.87 1589.24 1839.87 1594.37 1844.03 1598.53 1849.15 1598.53 1854.28 1598.53 1858.43 1594.38 1858.44 1589.25Z" fill="#FFFFFF" fill-rule="evenodd"/><path d="M1858.15 1589.23C1858.15 1594.2 1854.12 1598.23 1849.15 1598.23 1844.18 1598.23 1840.15 1594.2 1840.15 1589.23 1840.15 1584.26 1844.18 1580.23 1849.15 1580.23 1854.12 1580.23 1858.14 1584.26 1858.15 1589.23Z" fill="#C74440" fill-rule="evenodd"/><path d="M1706.13 1498.23C1706.13 1505.41 1700.31 1511.23 1693.13 1511.23 1685.95 1511.23 1680.13 1505.41 1680.13 1498.23 1680.13 1491.05 1685.95 1485.23 1693.13 1485.23 1700.3 1485.23 1706.12 1491.04 1706.13 1498.22L1702.42 1498.23C1702.42 1493.1 1698.26 1488.94 1693.13 1488.94 1688 1488.94 1683.85 1493.1 1683.85 1498.23 1683.85 1503.36 1688 1507.51 1693.13 1507.51 1698.25 1507.51 1702.41 1503.36 1702.42 1498.24Z" fill="#FFFFFF" fill-rule="evenodd"/><path d="M1702.13 1498.73C1702.13 1503.98 1697.88 1508.23 1692.63 1508.23 1687.38 1508.23 1683.13 1503.98 1683.13 1498.73 1683.13 1493.49 1687.38 1489.23 1692.63 1489.23 1697.88 1489.23 1702.13 1493.48 1702.13 1498.72Z" fill="#C74440" fill-rule="evenodd"/><path d="M1549.11 1408.21C1549.11 1415.4 1543.29 1421.21 1536.11 1421.21 1528.93 1421.21 1523.11 1415.4 1523.11 1408.21 1523.11 1401.04 1528.93 1395.21 1536.11 1395.21 1543.28 1395.21 1549.1 1401.03 1549.11 1408.2L1545.39 1408.21C1545.39 1403.09 1541.24 1398.93 1536.11 1398.93 1530.98 1398.93 1526.82 1403.09 1526.82 1408.21 1526.82 1413.34 1530.98 1417.5 1536.11 1417.5 1541.23 1417.5 1545.39 1413.35 1545.39 1408.22Z" fill="#FFFFFF" fill-rule="evenodd"/><path d="M1545.1 1408.21C1545.1 1413.18 1541.08 1417.21 1536.1 1417.21 1531.13 1417.21 1527.1 1413.18 1527.1 1408.21 1527.1 1403.24 1531.13 1399.21 1536.1 1399.21 1541.07 1399.21 1545.1 1403.23 1545.1 1408.2Z" fill="#C74440" fill-rule="evenodd"/><path d="M2175.2 1589.24C2175.2 1596.42 2169.38 1602.24 2162.2 1602.24 2155.02 1602.24 2149.2 1596.42 2149.2 1589.24 2149.2 1582.06 2155.02 1576.24 2162.2 1576.24 2169.38 1576.24 2175.19 1582.06 2175.2 1589.23L2171.49 1589.24C2171.49 1584.11 2167.33 1579.96 2162.2 1579.96 2157.07 1579.96 2152.91 1584.11 2152.91 1589.24 2152.91 1594.37 2157.07 1598.53 2162.2 1598.53 2167.33 1598.53 2171.48 1594.38 2171.49 1589.25Z" fill="#FFFFFF" fill-rule="evenodd"/><path d="M2172.2 1589.23C2172.2 1594.2 2167.95 1598.23 2162.7 1598.23 2157.46 1598.23 2153.2 1594.2 2153.2 1589.23 2153.2 1584.26 2157.46 1580.23 2162.7 1580.23 2167.95 1580.23 2172.2 1584.26 2172.2 1589.23Z" fill="#C74440" fill-rule="evenodd"/><path d="M2019.18 1498.23C2019.18 1505.41 2013.35 1511.23 2006.18 1511.23 1999 1511.23 1993.18 1505.41 1993.18 1498.23 1993.18 1491.05 1999 1485.23 2006.18 1485.23 2013.35 1485.23 2019.17 1491.04 2019.18 1498.22L2015.46 1498.23C2015.46 1493.1 2011.3 1488.94 2006.18 1488.94 2001.05 1488.94 1996.89 1493.1 1996.89 1498.23 1996.89 1503.36 2001.05 1507.51 2006.18 1507.51 2011.3 1507.51 2015.46 1503.36 2015.46 1498.24Z" fill="#FFFFFF" fill-rule="evenodd"/><path d="M2015.18 1498.73C2015.18 1503.98 2010.93 1508.23 2005.68 1508.23 2000.43 1508.23 1996.18 1503.98 1996.18 1498.73 1996.18 1493.49 2000.43 1489.23 2005.68 1489.23 2010.92 1489.23 2015.18 1493.48 2015.18 1498.72Z" fill="#C74440" fill-rule="evenodd"/><path d="M1862.15 1408.21C1862.15 1415.4 1856.33 1421.21 1849.15 1421.21 1841.98 1421.21 1836.15 1415.4 1836.15 1408.21 1836.15 1401.04 1841.98 1395.21 1849.15 1395.21 1856.33 1395.21 1862.15 1401.03 1862.15 1408.2L1858.44 1408.21C1858.44 1403.09 1854.28 1398.93 1849.15 1398.93 1844.03 1398.93 1839.87 1403.09 1839.87 1408.21 1839.87 1413.34 1844.03 1417.5 1849.15 1417.5 1854.28 1417.5 1858.43 1413.35 1858.44 1408.22Z" fill="#FFFFFF" fill-rule="evenodd"/><path d="M1858.15 1408.21C1858.15 1413.18 1854.12 1417.21 1849.15 1417.21 1844.18 1417.21 1840.15 1413.18 1840.15 1408.21 1840.15 1403.24 1844.18 1399.21 1849.15 1399.21 1854.12 1399.21 1858.14 1403.23 1858.15 1408.2Z" fill="#C74440" fill-rule="evenodd"/><path d="M1706.13 1318.2C1706.13 1325.38 1700.31 1331.2 1693.13 1331.2 1685.95 1331.2 1680.13 1325.38 1680.13 1318.2 1680.13 1311.02 1685.95 1305.2 1693.13 1305.2 1700.3 1305.2 1706.12 1311.01 1706.13 1318.19L1702.42 1318.2C1702.42 1313.07 1698.26 1308.92 1693.13 1308.92 1688 1308.92 1683.85 1313.07 1683.85 1318.2 1683.85 1323.33 1688 1327.49 1693.13 1327.49 1698.25 1327.49 1702.41 1323.33 1702.42 1318.21Z" fill="#FFFFFF" fill-rule="evenodd"/><path d="M1702.13 1317.71C1702.13 1322.95 1697.88 1327.21 1692.63 1327.21 1687.38 1327.21 1683.13 1322.95 1683.13 1317.71 1683.13 1312.46 1687.38 1308.21 1692.63 1308.21 1697.88 1308.21 1702.13 1312.45 1702.13 1317.7Z" fill="#C74440" fill-rule="evenodd"/><path d="M1549.11 1227.19C1549.11 1234.37 1543.29 1240.19 1536.11 1240.19 1528.93 1240.19 1523.11 1234.37 1523.11 1227.19 1523.11 1220.01 1528.93 1214.19 1536.11 1214.19 1543.28 1214.19 1549.1 1220 1549.11 1227.18L1545.39 1227.19C1545.39 1222.06 1541.24 1217.9 1536.11 1217.9 1530.98 1217.9 1526.82 1222.06 1526.82 1227.19 1526.82 1232.32 1530.98 1236.47 1536.11 1236.47 1541.23 1236.47 1545.39 1232.32 1545.39 1227.2Z" fill="#FFFFFF" fill-rule="evenodd"/><path d="M1545.1 1227.69C1545.1 1232.94 1541.08 1237.19 1536.1 1237.19 1531.13 1237.19 1527.1 1232.94 1527.1 1227.69 1527.1 1222.45 1531.13 1218.19 1536.1 1218.19 1541.07 1218.19 1545.1 1222.44 1545.1 1227.69Z" fill="#C74440" fill-rule="evenodd"/><path d="M2332.22 1498.23C2332.22 1505.41 2326.4 1511.23 2319.22 1511.23 2312.04 1511.23 2306.22 1505.41 2306.22 1498.23 2306.22 1491.05 2312.04 1485.23 2319.22 1485.23 2326.4 1485.23 2332.21 1491.04 2332.22 1498.22L2328.51 1498.23C2328.51 1493.1 2324.35 1488.94 2319.22 1488.94 2314.09 1488.94 2309.94 1493.1 2309.94 1498.23 2309.94 1503.36 2314.09 1507.51 2319.22 1507.51 2324.35 1507.51 2328.5 1503.36 2328.51 1498.24Z" fill="#FFFFFF" fill-rule="evenodd"/><path d="M2328.22 1498.73C2328.22 1503.98 2324.19 1508.23 2319.22 1508.23 2314.24 1508.23 2310.22 1503.98 2310.22 1498.73 2310.22 1493.49 2314.24 1489.23 2319.22 1489.23 2324.18 1489.23 2328.21 1493.48 2328.22 1498.72Z" fill="#C74440" fill-rule="evenodd"/><path d="M2175.2 1408.21C2175.2 1415.4 2169.38 1421.21 2162.2 1421.21 2155.02 1421.21 2149.2 1415.4 2149.2 1408.21 2149.2 1401.04 2155.02 1395.21 2162.2 1395.21 2169.38 1395.21 2175.19 1401.03 2175.2 1408.2L2171.49 1408.21C2171.49 1403.09 2167.33 1398.93 2162.2 1398.93 2157.07 1398.93 2152.91 1403.09 2152.91 1408.21 2152.91 1413.34 2157.07 1417.5 2162.2 1417.5 2167.33 1417.5 2171.48 1413.35 2171.49 1408.22Z" fill="#FFFFFF" fill-rule="evenodd"/><path d="M2172.2 1408.21C2172.2 1413.18 2167.95 1417.21 2162.7 1417.21 2157.46 1417.21 2153.2 1413.18 2153.2 1408.21 2153.2 1403.24 2157.46 1399.21 2162.7 1399.21 2167.95 1399.21 2172.2 1403.23 2172.2 1408.2Z" fill="#C74440" fill-rule="evenodd"/><path d="M2019.18 1318.2C2019.18 1325.38 2013.35 1331.2 2006.18 1331.2 1999 1331.2 1993.18 1325.38 1993.18 1318.2 1993.18 1311.02 1999 1305.2 2006.18 1305.2 2013.35 1305.2 2019.17 1311.01 2019.18 1318.19L2015.46 1318.2C2015.46 1313.07 2011.3 1308.92 2006.18 1308.92 2001.05 1308.92 1996.89 1313.07 1996.89 1318.2 1996.89 1323.33 2001.05 1327.49 2006.18 1327.49 2011.3 1327.49 2015.46 1323.33 2015.46 1318.21Z" fill="#FFFFFF" fill-rule="evenodd"/><path d="M2015.18 1317.71C2015.18 1322.95 2010.93 1327.21 2005.68 1327.21 2000.43 1327.21 1996.18 1322.95 1996.18 1317.71 1996.18 1312.46 2000.43 1308.21 2005.68 1308.21 2010.92 1308.21 2015.18 1312.45 2015.18 1317.7Z" fill="#C74440" fill-rule="evenodd"/><path d="M1862.15 1227.19C1862.15 1234.37 1856.33 1240.19 1849.15 1240.19 1841.98 1240.19 1836.15 1234.37 1836.15 1227.19 1836.15 1220.01 1841.98 1214.19 1849.15 1214.19 1856.33 1214.19 1862.15 1220 1862.15 1227.18L1858.44 1227.19C1858.44 1222.06 1854.28 1217.9 1849.15 1217.9 1844.03 1217.9 1839.87 1222.06 1839.87 1227.19 1839.87 1232.32 1844.03 1236.47 1849.15 1236.47 1854.28 1236.47 1858.43 1232.32 1858.44 1227.2Z" fill="#FFFFFF" fill-rule="evenodd"/><path d="M1858.15 1227.69C1858.15 1232.94 1854.12 1237.19 1849.15 1237.19 1844.18 1237.19 1840.15 1232.94 1840.15 1227.69 1840.15 1222.45 1844.18 1218.19 1849.15 1218.19 1854.12 1218.19 1858.14 1222.44 1858.15 1227.69Z" fill="#C74440" fill-rule="evenodd"/><path d="M1706.13 1137.18C1706.13 1144.35 1700.31 1150.18 1693.13 1150.18 1685.95 1150.18 1680.13 1144.35 1680.13 1137.18 1680.13 1129.99 1685.95 1124.18 1693.13 1124.18 1700.3 1124.18 1706.12 1129.99 1706.13 1137.16L1702.42 1137.18C1702.42 1132.05 1698.26 1127.89 1693.13 1127.89 1688 1127.89 1683.85 1132.05 1683.85 1137.18 1683.85 1142.3 1688 1146.46 1693.13 1146.46 1698.25 1146.46 1702.41 1142.31 1702.42 1137.19Z" fill="#FFFFFF" fill-rule="evenodd"/><path d="M1702.13 1137.17C1702.13 1142.14 1697.88 1146.17 1692.63 1146.17 1687.38 1146.17 1683.13 1142.14 1683.13 1137.17 1683.13 1132.2 1687.38 1128.17 1692.63 1128.17 1697.88 1128.17 1702.13 1132.19 1702.13 1137.16Z" fill="#C74440" fill-rule="evenodd"/><path d="M1549.11 1046.16C1549.11 1053.34 1543.29 1059.16 1536.11 1059.16 1528.93 1059.16 1523.11 1053.34 1523.11 1046.16 1523.11 1038.98 1528.93 1033.16 1536.11 1033.16 1543.28 1033.16 1549.1 1038.98 1549.11 1046.15L1545.39 1046.16C1545.39 1041.03 1541.24 1036.88 1536.11 1036.88 1530.98 1036.88 1526.82 1041.03 1526.82 1046.16 1526.82 1051.29 1530.98 1055.45 1536.11 1055.45 1541.23 1055.45 1545.39 1051.3 1545.39 1046.17Z" fill="#FFFFFF" fill-rule="evenodd"/><path d="M1545.1 1046.67C1545.1 1051.91 1541.08 1056.17 1536.1 1056.17 1531.13 1056.17 1527.1 1051.91 1527.1 1046.67 1527.1 1041.42 1531.13 1037.17 1536.1 1037.17 1541.07 1037.17 1545.1 1041.41 1545.1 1046.66Z" fill="#C74440" fill-rule="evenodd"/><path d="M2488.25 1408.21C2488.25 1415.4 2482.42 1421.21 2475.25 1421.21 2468.06 1421.21 2462.25 1415.4 2462.25 1408.21 2462.25 1401.04 2468.06 1395.21 2475.25 1395.21 2482.42 1395.21 2488.24 1401.03 2488.25 1408.2L2484.53 1408.21C2484.53 1403.09 2480.37 1398.93 2475.25 1398.93 2470.12 1398.93 2465.96 1403.09 2465.96 1408.21 2465.96 1413.34 2470.12 1417.5 2475.25 1417.5 2480.37 1417.5 2484.53 1413.35 2484.53 1408.22Z" fill="#FFFFFF" fill-rule="evenodd"/><path d="M2485.25 1408.21C2485.25 1413.18 2481 1417.21 2475.75 1417.21 2470.5 1417.21 2466.25 1413.18 2466.25 1408.21 2466.25 1403.24 2470.5 1399.21 2475.75 1399.21 2480.99 1399.21 2485.25 1403.23 2485.25 1408.2Z" fill="#C74440" fill-rule="evenodd"/><path d="M2332.22 1318.2C2332.22 1325.38 2326.4 1331.2 2319.22 1331.2 2312.04 1331.2 2306.22 1325.38 2306.22 1318.2 2306.22 1311.02 2312.04 1305.2 2319.22 1305.2 2326.4 1305.2 2332.21 1311.01 2332.22 1318.19L2328.51 1318.2C2328.51 1313.07 2324.35 1308.92 2319.22 1308.92 2314.09 1308.92 2309.94 1313.07 2309.94 1318.2 2309.94 1323.33 2314.09 1327.49 2319.22 1327.49 2324.35 1327.49 2328.5 1323.33 2328.51 1318.21Z" fill="#FFFFFF" fill-rule="evenodd"/><path d="M2328.22 1317.71C2328.22 1322.95 2324.19 1327.21 2319.22 1327.21 2314.24 1327.21 2310.22 1322.95 2310.22 1317.71 2310.22 1312.46 2314.24 1308.21 2319.22 1308.21 2324.18 1308.21 2328.21 1312.45 2328.22 1317.7Z" fill="#C74440" fill-rule="evenodd"/><path d="M2175.2 1227.19C2175.2 1234.37 2169.38 1240.19 2162.2 1240.19 2155.02 1240.19 2149.2 1234.37 2149.2 1227.19 2149.2 1220.01 2155.02 1214.19 2162.2 1214.19 2169.38 1214.19 2175.19 1220 2175.2 1227.18L2171.49 1227.19C2171.49 1222.06 2167.33 1217.9 2162.2 1217.9 2157.07 1217.9 2152.91 1222.06 2152.91 1227.19 2152.91 1232.32 2157.07 1236.47 2162.2 1236.47 2167.33 1236.47 2171.48 1232.32 2171.49 1227.2Z" fill="#FFFFFF" fill-rule="evenodd"/><path d="M2172.2 1227.69C2172.2 1232.94 2167.95 1237.19 2162.7 1237.19 2157.46 1237.19 2153.2 1232.94 2153.2 1227.69 2153.2 1222.45 2157.46 1218.19 2162.7 1218.19 2167.95 1218.19 2172.2 1222.44 2172.2 1227.69Z" fill="#C74440" fill-rule="evenodd"/><path d="M2019.18 1137.18C2019.18 1144.35 2013.35 1150.18 2006.18 1150.18 1999 1150.18 1993.18 1144.35 1993.18 1137.18 1993.18 1129.99 1999 1124.18 2006.18 1124.18 2013.35 1124.18 2019.17 1129.99 2019.18 1137.16L2015.46 1137.18C2015.46 1132.05 2011.3 1127.89 2006.18 1127.89 2001.05 1127.89 1996.89 1132.05 1996.89 1137.18 1996.89 1142.3 2001.05 1146.46 2006.18 1146.46 2011.3 1146.46 2015.46 1142.31 2015.46 1137.19Z" fill="#FFFFFF" fill-rule="evenodd"/><path d="M2015.18 1137.17C2015.18 1142.14 2010.93 1146.17 2005.68 1146.17 2000.43 1146.17 1996.18 1142.14 1996.18 1137.17 1996.18 1132.2 2000.43 1128.17 2005.68 1128.17 2010.92 1128.17 2015.18 1132.19 2015.18 1137.16Z" fill="#C74440" fill-rule="evenodd"/><path d="M1862.15 1046.16C1862.15 1053.34 1856.33 1059.16 1849.15 1059.16 1841.98 1059.16 1836.15 1053.34 1836.15 1046.16 1836.15 1038.98 1841.98 1033.16 1849.15 1033.16 1856.33 1033.16 1862.15 1038.98 1862.15 1046.15L1858.44 1046.16C1858.44 1041.03 1854.28 1036.88 1849.15 1036.88 1844.03 1036.88 1839.87 1041.03 1839.87 1046.16 1839.87 1051.29 1844.03 1055.45 1849.15 1055.45 1854.28 1055.45 1858.43 1051.3 1858.44 1046.17Z" fill="#FFFFFF" fill-rule="evenodd"/><path d="M1858.15 1046.67C1858.15 1051.91 1854.12 1056.17 1849.15 1056.17 1844.18 1056.17 1840.15 1051.91 1840.15 1046.67 1840.15 1041.42 1844.18 1037.17 1849.15 1037.17 1854.12 1037.17 1858.14 1041.41 1858.15 1046.66Z" fill="#C74440" fill-rule="evenodd"/><path d="M1706.13 956.149C1706.13 963.327 1700.31 969.149 1693.13 969.149 1685.95 969.149 1680.13 963.327 1680.13 956.149 1680.13 948.968 1685.95 943.149 1693.13 943.149 1700.3 943.149 1706.12 948.96 1706.13 956.136L1702.42 956.149C1702.42 951.021 1698.26 946.863 1693.13 946.863 1688 946.863 1683.85 951.021 1683.85 956.149 1683.85 961.277 1688 965.434 1693.13 965.434 1698.25 965.434 1702.41 961.282 1702.42 956.159Z" fill="#FFFFFF" fill-rule="evenodd"/><path d="M1702.13 956.144C1702.13 961.115 1697.88 965.144 1692.63 965.144 1687.38 965.144 1683.13 961.115 1683.13 956.144 1683.13 951.174 1687.38 947.144 1692.63 947.144 1697.88 947.144 1702.13 951.169 1702.13 956.135Z" fill="#C74440" fill-rule="evenodd"/><path d="M1549.11 866.135C1549.11 873.316 1543.29 879.136 1536.11 879.136 1528.93 879.136 1523.11 873.316 1523.11 866.135 1523.11 858.957 1528.93 853.136 1536.11 853.136 1543.28 853.136 1549.1 858.949 1549.11 866.123L1545.39 866.135C1545.39 861.007 1541.24 856.85 1536.11 856.85 1530.98 856.85 1526.82 861.007 1526.82 866.135 1526.82 871.264 1530.98 875.421 1536.11 875.421 1541.23 875.421 1545.39 871.271 1545.39 866.145Z" fill="#FFFFFF" fill-rule="evenodd"/><path d="M1545.1 865.639C1545.1 870.885 1541.08 875.139 1536.1 875.139 1531.13 875.139 1527.1 870.885 1527.1 865.639 1527.1 860.392 1531.13 856.139 1536.1 856.139 1541.07 856.139 1545.1 860.387 1545.1 865.631Z" fill="#C74440" fill-rule="evenodd"/><path d="M2488.25 1227.19C2488.25 1234.37 2482.42 1240.19 2475.25 1240.19 2468.06 1240.19 2462.25 1234.37 2462.25 1227.19 2462.25 1220.01 2468.06 1214.19 2475.25 1214.19 2482.42 1214.19 2488.24 1220 2488.25 1227.18L2484.53 1227.19C2484.53 1222.06 2480.37 1217.9 2475.25 1217.9 2470.12 1217.9 2465.96 1222.06 2465.96 1227.19 2465.96 1232.32 2470.12 1236.47 2475.25 1236.47 2480.37 1236.47 2484.53 1232.32 2484.53 1227.2Z" fill="#FFFFFF" fill-rule="evenodd"/><path d="M2485.25 1227.69C2485.25 1232.94 2481 1237.19 2475.75 1237.19 2470.5 1237.19 2466.25 1232.94 2466.25 1227.69 2466.25 1222.45 2470.5 1218.19 2475.75 1218.19 2480.99 1218.19 2485.25 1222.44 2485.25 1227.69Z" fill="#C74440" fill-rule="evenodd"/><path d="M2332.22 1137.18C2332.22 1144.35 2326.4 1150.18 2319.22 1150.18 2312.04 1150.18 2306.22 1144.35 2306.22 1137.18 2306.22 1129.99 2312.04 1124.18 2319.22 1124.18 2326.4 1124.18 2332.21 1129.99 2332.22 1137.16L2328.51 1137.18C2328.51 1132.05 2324.35 1127.89 2319.22 1127.89 2314.09 1127.89 2309.94 1132.05 2309.94 1137.18 2309.94 1142.3 2314.09 1146.46 2319.22 1146.46 2324.35 1146.46 2328.5 1142.31 2328.51 1137.19Z" fill="#FFFFFF" fill-rule="evenodd"/><path d="M2328.22 1137.17C2328.22 1142.14 2324.19 1146.17 2319.22 1146.17 2314.24 1146.17 2310.22 1142.14 2310.22 1137.17 2310.22 1132.2 2314.24 1128.17 2319.22 1128.17 2324.18 1128.17 2328.21 1132.19 2328.22 1137.16Z" fill="#C74440" fill-rule="evenodd"/><path d="M2175.2 1046.16C2175.2 1053.34 2169.38 1059.16 2162.2 1059.16 2155.02 1059.16 2149.2 1053.34 2149.2 1046.16 2149.2 1038.98 2155.02 1033.16 2162.2 1033.16 2169.38 1033.16 2175.19 1038.98 2175.2 1046.15L2171.49 1046.16C2171.49 1041.03 2167.33 1036.88 2162.2 1036.88 2157.07 1036.88 2152.91 1041.03 2152.91 1046.16 2152.91 1051.29 2157.07 1055.45 2162.2 1055.45 2167.33 1055.45 2171.48 1051.3 2171.49 1046.17Z" fill="#FFFFFF" fill-rule="evenodd"/><path d="M2172.2 1046.67C2172.2 1051.91 2167.95 1056.17 2162.7 1056.17 2157.46 1056.17 2153.2 1051.91 2153.2 1046.67 2153.2 1041.42 2157.46 1037.17 2162.7 1037.17 2167.95 1037.17 2172.2 1041.41 2172.2 1046.66Z" fill="#C74440" fill-rule="evenodd"/><path d="M2019.18 956.149C2019.18 963.327 2013.35 969.149 2006.18 969.149 1999 969.149 1993.18 963.327 1993.18 956.149 1993.18 948.968 1999 943.149 2006.18 943.149 2013.35 943.149 2019.17 948.96 2019.18 956.136L2015.46 956.149C2015.46 951.021 2011.3 946.863 2006.18 946.863 2001.05 946.863 1996.89 951.021 1996.89 956.149 1996.89 961.277 2001.05 965.434 2006.18 965.434 2011.3 965.434 2015.46 961.282 2015.46 956.159Z" fill="#FFFFFF" fill-rule="evenodd"/><path d="M2015.18 956.144C2015.18 961.115 2010.93 965.144 2005.68 965.144 2000.43 965.144 1996.18 961.115 1996.18 956.144 1996.18 951.174 2000.43 947.144 2005.68 947.144 2010.92 947.144 2015.18 951.169 2015.18 956.135Z" fill="#C74440" fill-rule="evenodd"/><path d="M1862.15 866.135C1862.15 873.316 1856.33 879.136 1849.15 879.136 1841.98 879.136 1836.15 873.316 1836.15 866.135 1836.15 858.957 1841.98 853.136 1849.15 853.136 1856.33 853.136 1862.15 858.949 1862.15 866.123L1858.44 866.135C1858.44 861.007 1854.28 856.85 1849.15 856.85 1844.03 856.85 1839.87 861.007 1839.87 866.135 1839.87 871.264 1844.03 875.421 1849.15 875.421 1854.28 875.421 1858.43 871.271 1858.44 866.145Z" fill="#FFFFFF" fill-rule="evenodd"/><path d="M1858.15 865.639C1858.15 870.885 1854.12 875.139 1849.15 875.139 1844.18 875.139 1840.15 870.885 1840.15 865.639 1840.15 860.392 1844.18 856.139 1849.15 856.139 1854.12 856.139 1858.14 860.387 1858.15 865.631Z" fill="#C74440" fill-rule="evenodd"/><path d="M1706.13 775.123C1706.13 782.301 1700.31 788.122 1693.13 788.122 1685.95 788.122 1680.13 782.301 1680.13 775.123 1680.13 767.941 1685.95 762.122 1693.13 762.122 1700.3 762.122 1706.12 767.934 1706.13 775.11L1702.42 775.123C1702.42 769.994 1698.26 765.837 1693.13 765.837 1688 765.837 1683.85 769.994 1683.85 775.123 1683.85 780.251 1688 784.408 1693.13 784.408 1698.25 784.408 1702.41 780.255 1702.42 775.132Z" fill="#FFFFFF" fill-rule="evenodd"/><path d="M1702.13 775.625C1702.13 780.872 1697.88 785.125 1692.63 785.125 1687.38 785.125 1683.13 780.872 1683.13 775.625 1683.13 770.379 1687.38 766.125 1692.63 766.125 1697.88 766.125 1702.13 770.374 1702.13 775.615Z" fill="#C74440" fill-rule="evenodd"/><path d="M2488.25 1046.16C2488.25 1053.34 2482.42 1059.16 2475.25 1059.16 2468.06 1059.16 2462.25 1053.34 2462.25 1046.16 2462.25 1038.98 2468.06 1033.16 2475.25 1033.16 2482.42 1033.16 2488.24 1038.98 2488.25 1046.15L2484.53 1046.16C2484.53 1041.03 2480.37 1036.88 2475.25 1036.88 2470.12 1036.88 2465.96 1041.03 2465.96 1046.16 2465.96 1051.29 2470.12 1055.45 2475.25 1055.45 2480.37 1055.45 2484.53 1051.3 2484.53 1046.17Z" fill="#FFFFFF" fill-rule="evenodd"/><path d="M2485.25 1046.67C2485.25 1051.91 2481 1056.17 2475.75 1056.17 2470.5 1056.17 2466.25 1051.91 2466.25 1046.67 2466.25 1041.42 2470.5 1037.17 2475.75 1037.17 2480.99 1037.17 2485.25 1041.41 2485.25 1046.66Z" fill="#C74440" fill-rule="evenodd"/><path d="M2332.22 956.149C2332.22 963.327 2326.4 969.149 2319.22 969.149 2312.04 969.149 2306.22 963.327 2306.22 956.149 2306.22 948.968 2312.04 943.149 2319.22 943.149 2326.4 943.149 2332.21 948.96 2332.22 956.136L2328.51 956.149C2328.51 951.021 2324.35 946.863 2319.22 946.863 2314.09 946.863 2309.94 951.021 2309.94 956.149 2309.94 961.277 2314.09 965.434 2319.22 965.434 2324.35 965.434 2328.5 961.282 2328.51 956.159Z" fill="#FFFFFF" fill-rule="evenodd"/><path d="M2328.22 956.144C2328.22 961.115 2324.19 965.144 2319.22 965.144 2314.24 965.144 2310.22 961.115 2310.22 956.144 2310.22 951.174 2314.24 947.144 2319.22 947.144 2324.18 947.144 2328.21 951.169 2328.22 956.135Z" fill="#C74440" fill-rule="evenodd"/><path d="M2175.2 866.135C2175.2 873.316 2169.38 879.136 2162.2 879.136 2155.02 879.136 2149.2 873.316 2149.2 866.135 2149.2 858.957 2155.02 853.136 2162.2 853.136 2169.38 853.136 2175.19 858.949 2175.2 866.123L2171.49 866.135C2171.49 861.007 2167.33 856.85 2162.2 856.85 2157.07 856.85 2152.91 861.007 2152.91 866.135 2152.91 871.264 2157.07 875.421 2162.2 875.421 2167.33 875.421 2171.48 871.271 2171.49 866.145Z" fill="#FFFFFF" fill-rule="evenodd"/><path d="M2172.2 865.639C2172.2 870.885 2167.95 875.139 2162.7 875.139 2157.46 875.139 2153.2 870.885 2153.2 865.639 2153.2 860.392 2157.46 856.139 2162.7 856.139 2167.95 856.139 2172.2 860.387 2172.2 865.631Z" fill="#C74440" fill-rule="evenodd"/><path d="M2019.18 775.123C2019.18 782.301 2013.35 788.122 2006.18 788.122 1999 788.122 1993.18 782.301 1993.18 775.123 1993.18 767.941 1999 762.122 2006.18 762.122 2013.35 762.122 2019.17 767.934 2019.18 775.11L2015.46 775.123C2015.46 769.994 2011.3 765.837 2006.18 765.837 2001.05 765.837 1996.89 769.994 1996.89 775.123 1996.89 780.251 2001.05 784.408 2006.18 784.408 2011.3 784.408 2015.46 780.255 2015.46 775.132Z" fill="#FFFFFF" fill-rule="evenodd"/><path d="M2015.18 775.625C2015.18 780.872 2010.93 785.125 2005.68 785.125 2000.43 785.125 1996.18 780.872 1996.18 775.625 1996.18 770.379 2000.43 766.125 2005.68 766.125 2010.92 766.125 2015.18 770.374 2015.18 775.615Z" fill="#C74440" fill-rule="evenodd"/><path d="M1862.15 685.109C1862.15 692.29 1856.33 698.11 1849.15 698.11 1841.98 698.11 1836.15 692.29 1836.15 685.109 1836.15 677.931 1841.98 672.109 1849.15 672.109 1856.33 672.109 1862.15 677.923 1862.15 685.097L1858.44 685.109C1858.44 679.981 1854.28 675.824 1849.15 675.824 1844.03 675.824 1839.87 679.981 1839.87 685.109 1839.87 690.238 1844.03 694.395 1849.15 694.395 1854.28 694.395 1858.43 690.245 1858.44 685.119Z" fill="#FFFFFF" fill-rule="evenodd"/><path d="M1858.15 685.106C1858.15 690.076 1854.12 694.106 1849.15 694.106 1844.18 694.106 1840.15 690.076 1840.15 685.106 1840.15 680.136 1844.18 676.106 1849.15 676.106 1854.12 676.106 1858.14 680.131 1858.15 685.099Z" fill="#C74440" fill-rule="evenodd"/><path d="M2488.25 866.135C2488.25 873.316 2482.42 879.136 2475.25 879.136 2468.06 879.136 2462.25 873.316 2462.25 866.135 2462.25 858.957 2468.06 853.136 2475.25 853.136 2482.42 853.136 2488.24 858.949 2488.25 866.123L2484.53 866.135C2484.53 861.007 2480.37 856.85 2475.25 856.85 2470.12 856.85 2465.96 861.007 2465.96 866.135 2465.96 871.264 2470.12 875.421 2475.25 875.421 2480.37 875.421 2484.53 871.271 2484.53 866.145Z" fill="#FFFFFF" fill-rule="evenodd"/><path d="M2485.25 865.639C2485.25 870.885 2481 875.139 2475.75 875.139 2470.5 875.139 2466.25 870.885 2466.25 865.639 2466.25 860.392 2470.5 856.139 2475.75 856.139 2480.99 856.139 2485.25 860.387 2485.25 865.631Z" fill="#C74440" fill-rule="evenodd"/><path d="M2332.22 775.123C2332.22 782.301 2326.4 788.122 2319.22 788.122 2312.04 788.122 2306.22 782.301 2306.22 775.123 2306.22 767.941 2312.04 762.122 2319.22 762.122 2326.4 762.122 2332.21 767.934 2332.22 775.11L2328.51 775.123C2328.51 769.994 2324.35 765.837 2319.22 765.837 2314.09 765.837 2309.94 769.994 2309.94 775.123 2309.94 780.251 2314.09 784.408 2319.22 784.408 2324.35 784.408 2328.5 780.255 2328.51 775.132Z" fill="#FFFFFF" fill-rule="evenodd"/><path d="M2328.22 775.625C2328.22 780.872 2324.19 785.125 2319.22 785.125 2314.24 785.125 2310.22 780.872 2310.22 775.625 2310.22 770.379 2314.24 766.125 2319.22 766.125 2324.18 766.125 2328.21 770.374 2328.22 775.615Z" fill="#C74440" fill-rule="evenodd"/><path d="M2175.2 685.109C2175.2 692.29 2169.38 698.11 2162.2 698.11 2155.02 698.11 2149.2 692.29 2149.2 685.109 2149.2 677.931 2155.02 672.109 2162.2 672.109 2169.38 672.109 2175.19 677.923 2175.2 685.097L2171.49 685.109C2171.49 679.981 2167.33 675.824 2162.2 675.824 2157.07 675.824 2152.91 679.981 2152.91 685.109 2152.91 690.238 2157.07 694.395 2162.2 694.395 2167.33 694.395 2171.48 690.245 2171.49 685.119Z" fill="#FFFFFF" fill-rule="evenodd"/><path d="M2172.2 685.106C2172.2 690.076 2167.95 694.106 2162.7 694.106 2157.46 694.106 2153.2 690.076 2153.2 685.106 2153.2 680.136 2157.46 676.106 2162.7 676.106 2167.95 676.106 2172.2 680.131 2172.2 685.099Z" fill="#C74440" fill-rule="evenodd"/><path d="M2019.18 595.096C2019.18 602.275 2013.35 608.096 2006.18 608.096 1999 608.096 1993.18 602.275 1993.18 595.096 1993.18 587.915 1999 582.096 2006.18 582.096 2013.35 582.096 2019.17 587.908 2019.18 595.084L2015.46 595.096C2015.46 589.968 2011.3 585.81 2006.18 585.81 2001.05 585.81 1996.89 589.968 1996.89 595.096 1996.89 600.224 2001.05 604.382 2006.18 604.382 2011.3 604.382 2015.46 600.229 2015.46 595.106Z" fill="#FFFFFF" fill-rule="evenodd"/><path d="M2015.18 594.598C2015.18 599.845 2010.93 604.098 2005.68 604.098 2000.43 604.098 1996.18 599.845 1996.18 594.598 1996.18 589.352 2000.43 585.098 2005.68 585.098 2010.92 585.098 2015.18 589.347 2015.18 594.588Z" fill="#C74440" fill-rule="evenodd"/></g></svg>