<svg width="966" height="1092" xmlns="http://www.w3.org/2000/svg" xmlns:xlink="http://www.w3.org/1999/xlink" xml:space="preserve" overflow="hidden"><g transform="translate(-2776 -619)"><path d="M3728.18 1164.68 3728.18 1164.68 3728.18 894.736 3725.91 892.117 3258.68 622.175 2791.44 892.117 2789.18 894.736 2789.18 1434.61 2791.44 1437.23 3258.68 1707.18 3725.91 1437.23 3728.18 1434.61 3728.18 1164.68" stroke="#000000" stroke-width="6.18786" stroke-linecap="round" stroke-linejoin="round" stroke-miterlimit="10" fill="none" fill-rule="evenodd"/><path d="M3037.14 1571.23C3037.14 1578.41 3031.32 1584.23 3024.14 1584.23 3016.96 1584.23 3011.14 1578.41 3011.14 1571.23 3011.14 1564.05 3016.96 1558.23 3024.14 1558.23 3031.32 1558.23 3037.14 1564.05 3037.14 1571.22L3033.43 1571.23C3033.43 1566.11 3029.27 1561.95 3024.14 1561.95 3019.01 1561.95 3014.86 1566.11 3014.86 1571.23 3014.86 1576.36 3019.01 1580.52 3024.14 1580.52 3029.27 1580.52 3033.42 1576.37 3033.43 1571.24Z" fill="#FFFFFF" fill-rule="evenodd"/><path d="M3033.15 1571.74C3033.15 1576.99 3028.89 1581.24 3023.65 1581.24 3018.4 1581.24 3014.15 1576.99 3014.15 1571.74 3014.15 1566.49 3018.4 1562.24 3023.65 1562.24 3028.89 1562.24 3033.14 1566.49 3033.15 1571.73Z" fill="#C74440" fill-rule="evenodd"/><path d="M2902.12 1455.22C2902.12 1462.4 2896.3 1468.22 2889.12 1468.22 2881.94 1468.22 2876.12 1462.4 2876.12 1455.22 2876.12 1448.04 2881.94 1442.22 2889.12 1442.22 2896.3 1442.22 2902.12 1448.03 2902.12 1455.21L2898.41 1455.22C2898.41 1450.09 2894.25 1445.93 2889.12 1445.93 2883.99 1445.93 2879.84 1450.09 2879.84 1455.22 2879.84 1460.35 2883.99 1464.5 2889.12 1464.5 2894.25 1464.5 2898.4 1460.35 2898.41 1455.23Z" fill="#FFFFFF" fill-rule="evenodd"/><path d="M2899.13 1455.21C2899.13 1460.18 2894.87 1464.21 2889.63 1464.21 2884.38 1464.21 2880.13 1460.18 2880.13 1455.21 2880.13 1450.24 2884.38 1446.21 2889.63 1446.21 2894.87 1446.21 2899.12 1450.24 2899.13 1455.2Z" fill="#C74440" fill-rule="evenodd"/><path d="M3339.19 1630.24C3339.19 1637.42 3333.37 1643.24 3326.19 1643.24 3319.01 1643.24 3313.19 1637.42 3313.19 1630.24 3313.19 1623.06 3319.01 1617.24 3326.19 1617.24 3333.36 1617.24 3339.18 1623.06 3339.19 1630.23L3335.47 1630.24C3335.47 1625.11 3331.32 1620.96 3326.19 1620.96 3321.06 1620.96 3316.9 1625.11 3316.9 1630.24 3316.9 1635.37 3321.06 1639.53 3326.19 1639.53 3331.31 1639.53 3335.47 1635.38 3335.47 1630.25Z" fill="#FFFFFF" fill-rule="evenodd"/><path d="M3335.19 1629.75C3335.19 1635 3330.94 1639.25 3325.69 1639.25 3320.44 1639.25 3316.19 1635 3316.19 1629.75 3316.19 1624.5 3320.44 1620.25 3325.69 1620.25 3330.94 1620.25 3335.19 1624.5 3335.19 1629.74Z" fill="#C74440" fill-rule="evenodd"/><path d="M3204.17 1513.23C3204.17 1520.4 3198.35 1526.23 3191.17 1526.23 3183.99 1526.23 3178.17 1520.4 3178.17 1513.23 3178.17 1506.05 3183.99 1500.23 3191.17 1500.23 3198.34 1500.23 3204.16 1506.04 3204.17 1513.21L3200.45 1513.23C3200.45 1508.1 3196.29 1503.94 3191.17 1503.94 3186.04 1503.94 3181.88 1508.1 3181.88 1513.23 3181.88 1518.35 3186.04 1522.51 3191.17 1522.51 3196.29 1522.51 3200.45 1518.36 3200.45 1513.24Z" fill="#FFFFFF" fill-rule="evenodd"/><path d="M3201.17 1513.73C3201.17 1518.98 3196.92 1523.23 3191.67 1523.23 3186.42 1523.23 3182.17 1518.98 3182.17 1513.73 3182.17 1508.48 3186.42 1504.23 3191.67 1504.23 3196.91 1504.23 3201.17 1508.48 3201.17 1513.72Z" fill="#C74440" fill-rule="evenodd"/><path d="M3070.15 1397.21C3070.15 1404.39 3064.33 1410.21 3057.15 1410.21 3049.97 1410.21 3044.15 1404.39 3044.15 1397.21 3044.15 1390.03 3049.97 1384.21 3057.15 1384.21 3064.32 1384.21 3070.14 1390.02 3070.15 1397.2L3066.43 1397.21C3066.43 1392.08 3062.28 1387.92 3057.15 1387.92 3052.02 1387.92 3047.86 1392.08 3047.86 1397.21 3047.86 1402.34 3052.02 1406.49 3057.15 1406.49 3062.27 1406.49 3066.43 1402.34 3066.43 1397.22Z" fill="#FFFFFF" fill-rule="evenodd"/><path d="M3066.14 1397.2C3066.14 1402.17 3062.11 1406.2 3057.14 1406.2 3052.17 1406.2 3048.14 1402.17 3048.14 1397.2 3048.14 1392.23 3052.17 1388.2 3057.14 1388.2 3062.11 1388.2 3066.14 1392.23 3066.14 1397.19Z" fill="#C74440" fill-rule="evenodd"/><path d="M2936.13 1281.19C2936.13 1288.37 2930.31 1294.19 2923.13 1294.19 2915.95 1294.19 2910.13 1288.37 2910.13 1281.19 2910.13 1274.01 2915.95 1268.19 2923.13 1268.19 2930.3 1268.19 2936.12 1274 2936.13 1281.18L2932.41 1281.19C2932.41 1276.06 2928.26 1271.91 2923.13 1271.91 2918 1271.91 2913.84 1276.06 2913.84 1281.19 2913.84 1286.32 2918 1290.48 2923.13 1290.48 2928.25 1290.48 2932.41 1286.33 2932.41 1281.2Z" fill="#FFFFFF" fill-rule="evenodd"/><path d="M2932.12 1281.19C2932.12 1286.16 2928.09 1290.19 2923.12 1290.19 2918.15 1290.19 2914.12 1286.16 2914.12 1281.19 2914.12 1276.21 2918.15 1272.19 2923.12 1272.19 2928.09 1272.19 2932.12 1276.21 2932.12 1281.18Z" fill="#C74440" fill-rule="evenodd"/><path d="M2802.11 1165.18C2802.11 1172.35 2796.29 1178.18 2789.11 1178.18 2781.93 1178.18 2776.11 1172.35 2776.11 1165.18 2776.11 1157.99 2781.93 1152.18 2789.11 1152.18 2796.28 1152.18 2802.1 1157.99 2802.11 1165.16L2798.39 1165.18C2798.39 1160.05 2794.24 1155.89 2789.11 1155.89 2783.98 1155.89 2779.82 1160.05 2779.82 1165.18 2779.82 1170.3 2783.98 1174.46 2789.11 1174.46 2794.23 1174.46 2798.39 1170.31 2798.39 1165.18Z" fill="#FFFFFF" fill-rule="evenodd"/><path d="M2798.1 1164.68C2798.1 1169.93 2794.08 1174.18 2789.1 1174.18 2784.13 1174.18 2780.1 1169.93 2780.1 1164.68 2780.1 1159.43 2784.13 1155.18 2789.1 1155.18 2794.07 1155.18 2798.1 1159.43 2798.1 1164.67Z" fill="#C74440" fill-rule="evenodd"/><path d="M3506.21 1571.23C3506.21 1578.41 3500.39 1584.23 3493.21 1584.23 3486.03 1584.23 3480.21 1578.41 3480.21 1571.23 3480.21 1564.05 3486.03 1558.23 3493.21 1558.23 3500.39 1558.23 3506.2 1564.05 3506.21 1571.22L3502.5 1571.23C3502.5 1566.11 3498.34 1561.95 3493.21 1561.95 3488.08 1561.95 3483.93 1566.11 3483.93 1571.23 3483.93 1576.36 3488.08 1580.52 3493.21 1580.52 3498.34 1580.52 3502.49 1576.37 3502.5 1571.24Z" fill="#FFFFFF" fill-rule="evenodd"/><path d="M3503.22 1571.74C3503.22 1576.99 3498.96 1581.24 3493.72 1581.24 3488.47 1581.24 3484.22 1576.99 3484.22 1571.74 3484.22 1566.49 3488.47 1562.24 3493.72 1562.24 3498.96 1562.24 3503.21 1566.49 3503.22 1571.73Z" fill="#C74440" fill-rule="evenodd"/><path d="M3372.19 1455.22C3372.19 1462.4 3366.37 1468.22 3359.19 1468.22 3352.01 1468.22 3346.19 1462.4 3346.19 1455.22 3346.19 1448.04 3352.01 1442.22 3359.19 1442.22 3366.36 1442.22 3372.18 1448.03 3372.19 1455.21L3368.48 1455.22C3368.48 1450.09 3364.32 1445.93 3359.19 1445.93 3354.06 1445.93 3349.91 1450.09 3349.91 1455.22 3349.91 1460.35 3354.06 1464.5 3359.19 1464.5 3364.31 1464.5 3368.47 1460.35 3368.48 1455.23Z" fill="#FFFFFF" fill-rule="evenodd"/><path d="M3368.19 1455.21C3368.19 1460.18 3364.16 1464.21 3359.19 1464.21 3354.21 1464.21 3350.19 1460.18 3350.19 1455.21 3350.19 1450.24 3354.21 1446.21 3359.19 1446.21 3364.15 1446.21 3368.18 1450.24 3368.19 1455.2Z" fill="#C74440" fill-rule="evenodd"/><path d="M3238.17 1339.2C3238.17 1346.38 3232.35 1352.2 3225.17 1352.2 3217.99 1352.2 3212.17 1346.38 3212.17 1339.2 3212.17 1332.02 3217.99 1326.2 3225.17 1326.2 3232.35 1326.2 3238.17 1332.01 3238.17 1339.19L3234.46 1339.2C3234.46 1334.07 3230.3 1329.91 3225.17 1329.91 3220.04 1329.91 3215.89 1334.07 3215.89 1339.2 3215.89 1344.33 3220.04 1348.49 3225.17 1348.49 3230.3 1348.49 3234.45 1344.34 3234.46 1339.21Z" fill="#FFFFFF" fill-rule="evenodd"/><path d="M3234.17 1339.19C3234.17 1344.16 3230.14 1348.19 3225.17 1348.19 3220.2 1348.19 3216.17 1344.16 3216.17 1339.19 3216.17 1334.22 3220.2 1330.19 3225.17 1330.19 3230.13 1330.19 3234.16 1334.22 3234.17 1339.19Z" fill="#C74440" fill-rule="evenodd"/><path d="M3104.15 1223.18C3104.15 1230.36 3098.33 1236.18 3091.15 1236.18 3083.97 1236.18 3078.15 1230.36 3078.15 1223.18 3078.15 1216 3083.97 1210.18 3091.15 1210.18 3098.33 1210.18 3104.15 1216 3104.15 1223.17L3100.44 1223.18C3100.44 1218.06 3096.28 1213.9 3091.15 1213.9 3086.02 1213.9 3081.87 1218.06 3081.87 1223.18 3081.87 1228.31 3086.02 1232.47 3091.15 1232.47 3096.28 1232.47 3100.43 1228.32 3100.44 1223.19Z" fill="#FFFFFF" fill-rule="evenodd"/><path d="M3100.16 1223.18C3100.16 1228.15 3095.9 1232.18 3090.66 1232.18 3085.41 1232.18 3081.16 1228.15 3081.16 1223.18 3081.16 1218.21 3085.41 1214.18 3090.66 1214.18 3095.9 1214.18 3100.15 1218.2 3100.16 1223.17Z" fill="#C74440" fill-rule="evenodd"/><path d="M2970.13 1107.17C2970.13 1114.35 2964.31 1120.17 2957.13 1120.17 2949.95 1120.17 2944.13 1114.35 2944.13 1107.17 2944.13 1099.99 2949.95 1094.17 2957.13 1094.17 2964.31 1094.17 2970.13 1099.98 2970.13 1107.15L2966.42 1107.17C2966.42 1102.04 2962.26 1097.88 2957.13 1097.88 2952 1097.88 2947.85 1102.04 2947.85 1107.17 2947.85 1112.29 2952 1116.45 2957.13 1116.45 2962.26 1116.45 2966.41 1112.3 2966.42 1107.18Z" fill="#FFFFFF" fill-rule="evenodd"/><path d="M2966.14 1106.67C2966.14 1111.92 2961.88 1116.17 2956.64 1116.17 2951.39 1116.17 2947.14 1111.92 2947.14 1106.67 2947.14 1101.42 2951.39 1097.17 2956.64 1097.17 2961.88 1097.17 2966.13 1101.42 2966.14 1106.66Z" fill="#C74440" fill-rule="evenodd"/><path d="M2835.11 990.15C2835.11 997.331 2829.29 1003.15 2822.11 1003.15 2814.93 1003.15 2809.11 997.331 2809.11 990.15 2809.11 982.971 2814.93 977.15 2822.11 977.15 2829.29 977.15 2835.11 982.964 2835.11 990.137L2831.4 990.15C2831.4 985.021 2827.24 980.864 2822.11 980.864 2816.98 980.864 2812.83 985.021 2812.83 990.15 2812.83 995.28 2816.98 999.436 2822.11 999.436 2827.24 999.436 2831.39 995.286 2831.4 990.16Z" fill="#FFFFFF" fill-rule="evenodd"/><path d="M2832.12 990.653C2832.12 995.902 2827.86 1000.15 2822.62 1000.15 2817.37 1000.15 2813.12 995.902 2813.12 990.653 2813.12 985.407 2817.37 981.153 2822.62 981.153 2827.86 981.153 2832.11 985.402 2832.12 990.646Z" fill="#C74440" fill-rule="evenodd"/><path d="M3540.22 1397.21C3540.22 1404.39 3534.39 1410.21 3527.22 1410.21 3520.04 1410.21 3514.22 1404.39 3514.22 1397.21 3514.22 1390.03 3520.04 1384.21 3527.22 1384.21 3534.39 1384.21 3540.21 1390.02 3540.22 1397.2L3536.5 1397.21C3536.5 1392.08 3532.34 1387.92 3527.22 1387.92 3522.09 1387.92 3517.93 1392.08 3517.93 1397.21 3517.93 1402.34 3522.09 1406.49 3527.22 1406.49 3532.34 1406.49 3536.5 1402.34 3536.5 1397.22Z" fill="#FFFFFF" fill-rule="evenodd"/><path d="M3536.21 1397.2C3536.21 1402.17 3532.18 1406.2 3527.21 1406.2 3522.24 1406.2 3518.21 1402.17 3518.21 1397.2 3518.21 1392.23 3522.24 1388.2 3527.21 1388.2 3532.17 1388.2 3536.2 1392.23 3536.21 1397.19Z" fill="#C74440" fill-rule="evenodd"/><path d="M3406.2 1281.19C3406.2 1288.37 3400.38 1294.19 3393.2 1294.19 3386.02 1294.19 3380.2 1288.37 3380.2 1281.19 3380.2 1274.01 3386.02 1268.19 3393.2 1268.19 3400.37 1268.19 3406.19 1274 3406.2 1281.18L3402.48 1281.19C3402.48 1276.06 3398.32 1271.91 3393.2 1271.91 3388.07 1271.91 3383.91 1276.06 3383.91 1281.19 3383.91 1286.32 3388.07 1290.48 3393.2 1290.48 3398.32 1290.48 3402.48 1286.33 3402.48 1281.2Z" fill="#FFFFFF" fill-rule="evenodd"/><path d="M3402.2 1281.19C3402.2 1286.16 3397.95 1290.19 3392.7 1290.19 3387.45 1290.19 3383.2 1286.16 3383.2 1281.19 3383.2 1276.21 3387.45 1272.19 3392.7 1272.19 3397.94 1272.19 3402.2 1276.21 3402.2 1281.18Z" fill="#C74440" fill-rule="evenodd"/><path d="M3271.17 1165.18C3271.17 1172.35 3265.57 1178.18 3258.67 1178.18 3251.76 1178.18 3246.17 1172.35 3246.17 1165.18 3246.17 1157.99 3251.76 1152.18 3258.67 1152.18 3265.57 1152.18 3271.16 1157.99 3271.17 1165.16L3267.6 1165.18C3267.6 1160.05 3263.6 1155.89 3258.67 1155.89 3253.74 1155.89 3249.74 1160.05 3249.74 1165.18 3249.74 1170.3 3253.74 1174.46 3258.67 1174.46 3263.6 1174.46 3267.59 1170.31 3267.6 1165.18Z" fill="#FFFFFF" fill-rule="evenodd"/><path d="M3268.18 1164.68C3268.18 1169.93 3263.93 1174.18 3258.68 1174.18 3253.43 1174.18 3249.18 1169.93 3249.18 1164.68 3249.18 1159.43 3253.43 1155.18 3258.68 1155.18 3263.92 1155.18 3268.18 1159.43 3268.18 1164.67Z" fill="#C74440" fill-rule="evenodd"/><path d="M3137.16 1048.16C3137.16 1055.34 3131.34 1061.16 3124.16 1061.16 3116.98 1061.16 3111.16 1055.34 3111.16 1048.16 3111.16 1040.98 3116.98 1035.16 3124.16 1035.16 3131.33 1035.16 3137.15 1040.97 3137.16 1048.15L3133.44 1048.16C3133.44 1043.03 3129.29 1038.87 3124.16 1038.87 3119.03 1038.87 3114.87 1043.03 3114.87 1048.16 3114.87 1053.29 3119.03 1057.44 3124.16 1057.44 3129.28 1057.44 3133.44 1053.29 3133.44 1048.17Z" fill="#FFFFFF" fill-rule="evenodd"/><path d="M3134.16 1048.66C3134.16 1053.91 3129.91 1058.16 3124.66 1058.16 3119.41 1058.16 3115.16 1053.91 3115.16 1048.66 3115.16 1043.42 3119.41 1039.16 3124.66 1039.16 3129.9 1039.16 3134.16 1043.41 3134.16 1048.65Z" fill="#C74440" fill-rule="evenodd"/><path d="M3003.14 932.141C3003.14 939.32 2997.32 945.141 2990.14 945.141 2982.96 945.141 2977.14 939.32 2977.14 932.141 2977.14 924.96 2982.96 919.141 2990.14 919.141 2997.31 919.141 3003.13 924.953 3003.14 932.126L2999.42 932.141C2999.42 927.013 2995.27 922.855 2990.14 922.855 2985.01 922.855 2980.85 927.013 2980.85 932.141 2980.85 937.269 2985.01 941.427 2990.14 941.427 2995.26 941.427 2999.42 937.274 2999.42 932.148Z" fill="#FFFFFF" fill-rule="evenodd"/><path d="M2999.13 932.645C2999.13 937.891 2995.1 942.144 2990.13 942.144 2985.16 942.144 2981.13 937.891 2981.13 932.645 2981.13 927.398 2985.16 923.144 2990.13 923.144 2995.1 923.144 2999.13 927.39 2999.13 932.634Z" fill="#C74440" fill-rule="evenodd"/><path d="M3708.24 1339.2C3708.24 1346.38 3702.42 1352.2 3695.24 1352.2 3688.06 1352.2 3682.24 1346.38 3682.24 1339.2 3682.24 1332.02 3688.06 1326.2 3695.24 1326.2 3702.42 1326.2 3708.23 1332.01 3708.24 1339.19L3704.53 1339.2C3704.53 1334.07 3700.37 1329.91 3695.24 1329.91 3690.11 1329.91 3685.95 1334.07 3685.95 1339.2 3685.95 1344.33 3690.11 1348.49 3695.24 1348.49 3700.37 1348.49 3704.52 1344.34 3704.53 1339.21Z" fill="#FFFFFF" fill-rule="evenodd"/><path d="M3704.25 1339.19C3704.25 1344.16 3699.99 1348.19 3694.75 1348.19 3689.5 1348.19 3685.25 1344.16 3685.25 1339.19 3685.25 1334.22 3689.5 1330.19 3694.75 1330.19 3699.99 1330.19 3704.24 1334.22 3704.25 1339.19Z" fill="#C74440" fill-rule="evenodd"/><path d="M3573.22 1223.18C3573.22 1230.36 3567.4 1236.18 3560.22 1236.18 3553.04 1236.18 3547.22 1230.36 3547.22 1223.18 3547.22 1216 3553.04 1210.18 3560.22 1210.18 3567.39 1210.18 3573.21 1216 3573.22 1223.17L3569.51 1223.18C3569.51 1218.06 3565.35 1213.9 3560.22 1213.9 3555.09 1213.9 3550.94 1218.06 3550.94 1223.18 3550.94 1228.31 3555.09 1232.47 3560.22 1232.47 3565.35 1232.47 3569.5 1228.32 3569.51 1223.19Z" fill="#FFFFFF" fill-rule="evenodd"/><path d="M3570.23 1223.18C3570.23 1228.15 3565.97 1232.18 3560.73 1232.18 3555.48 1232.18 3551.23 1228.15 3551.23 1223.18 3551.23 1218.21 3555.48 1214.18 3560.73 1214.18 3565.97 1214.18 3570.22 1218.2 3570.23 1223.17Z" fill="#C74440" fill-rule="evenodd"/><path d="M3439.2 1107.17C3439.2 1114.35 3433.38 1120.17 3426.2 1120.17 3419.02 1120.17 3413.2 1114.35 3413.2 1107.17 3413.2 1099.99 3419.02 1094.17 3426.2 1094.17 3433.37 1094.17 3439.19 1099.98 3439.2 1107.15L3435.49 1107.17C3435.49 1102.04 3431.33 1097.88 3426.2 1097.88 3421.07 1097.88 3416.92 1102.04 3416.92 1107.17 3416.92 1112.29 3421.07 1116.45 3426.2 1116.45 3431.32 1116.45 3435.48 1112.3 3435.49 1107.18Z" fill="#FFFFFF" fill-rule="evenodd"/><path d="M3436.21 1106.67C3436.21 1111.92 3431.95 1116.17 3426.71 1116.17 3421.46 1116.17 3417.21 1111.92 3417.21 1106.67 3417.21 1101.42 3421.46 1097.17 3426.71 1097.17 3431.95 1097.17 3436.2 1101.42 3436.21 1106.66Z" fill="#C74440" fill-rule="evenodd"/><path d="M3305.18 990.15C3305.18 997.331 3299.36 1003.15 3292.18 1003.15 3285 1003.15 3279.18 997.331 3279.18 990.15 3279.18 982.971 3285 977.15 3292.18 977.15 3299.36 977.15 3305.17 982.964 3305.18 990.137L3301.47 990.15C3301.47 985.021 3297.31 980.864 3292.18 980.864 3287.05 980.864 3282.9 985.021 3282.9 990.15 3282.9 995.28 3287.05 999.436 3292.18 999.436 3297.31 999.436 3301.46 995.286 3301.47 990.16Z" fill="#FFFFFF" fill-rule="evenodd"/><path d="M3301.18 990.653C3301.18 995.902 3297.15 1000.15 3292.18 1000.15 3287.21 1000.15 3283.18 995.902 3283.18 990.653 3283.18 985.407 3287.21 981.153 3292.18 981.153 3297.14 981.153 3301.17 985.402 3301.18 990.646Z" fill="#C74440" fill-rule="evenodd"/><path d="M3171.16 874.133C3171.16 881.311 3165.34 887.133 3158.16 887.133 3150.98 887.133 3145.16 881.311 3145.16 874.133 3145.16 866.952 3150.98 861.133 3158.16 861.133 3165.34 861.133 3171.15 866.945 3171.16 874.12L3167.45 874.133C3167.45 869.005 3163.29 864.847 3158.16 864.847 3153.03 864.847 3148.88 869.005 3148.88 874.133 3148.88 879.261 3153.03 883.419 3158.16 883.419 3163.29 883.419 3167.44 879.266 3167.45 874.143Z" fill="#FFFFFF" fill-rule="evenodd"/><path d="M3167.16 874.129C3167.16 879.099 3163.13 883.129 3158.16 883.129 3153.19 883.129 3149.16 879.099 3149.16 874.129 3149.16 869.158 3153.19 865.129 3158.16 865.129 3163.12 865.129 3167.15 869.151 3167.16 874.119Z" fill="#C74440" fill-rule="evenodd"/><path d="M3037.14 758.116C3037.14 765.297 3031.32 771.116 3024.14 771.116 3016.96 771.116 3011.14 765.297 3011.14 758.116 3011.14 750.937 3016.96 745.116 3024.14 745.116 3031.32 745.116 3037.14 750.927 3037.14 758.103L3033.43 758.116C3033.43 752.987 3029.27 748.83 3024.14 748.83 3019.01 748.83 3014.86 752.987 3014.86 758.116 3014.86 763.244 3019.01 767.402 3024.14 767.402 3029.27 767.402 3033.42 763.251 3033.43 758.126Z" fill="#FFFFFF" fill-rule="evenodd"/><path d="M3033.15 758.112C3033.15 763.083 3028.89 767.112 3023.65 767.112 3018.4 767.112 3014.15 763.083 3014.15 758.112 3014.15 753.142 3018.4 749.112 3023.65 749.112 3028.89 749.112 3033.14 753.137 3033.15 758.103Z" fill="#C74440" fill-rule="evenodd"/><path d="M3741.25 1165.18C3741.25 1172.35 3735.42 1178.18 3728.25 1178.18 3721.06 1178.18 3715.25 1172.35 3715.25 1165.18 3715.25 1157.99 3721.06 1152.18 3728.25 1152.18 3735.42 1152.18 3741.24 1157.99 3741.25 1165.16L3737.53 1165.18C3737.53 1160.05 3733.37 1155.89 3728.25 1155.89 3723.12 1155.89 3718.96 1160.05 3718.96 1165.18 3718.96 1170.3 3723.12 1174.46 3728.25 1174.46 3733.37 1174.46 3737.53 1170.31 3737.53 1165.18Z" fill="#FFFFFF" fill-rule="evenodd"/><path d="M3737.24 1164.68C3737.24 1169.93 3733.21 1174.18 3728.24 1174.18 3723.27 1174.18 3719.24 1169.93 3719.24 1164.68 3719.24 1159.43 3723.27 1155.18 3728.24 1155.18 3733.2 1155.18 3737.23 1159.43 3737.24 1164.67Z" fill="#C74440" fill-rule="evenodd"/><path d="M3607.23 1048.16C3607.23 1055.34 3601.41 1061.16 3594.23 1061.16 3587.05 1061.16 3581.23 1055.34 3581.23 1048.16 3581.23 1040.98 3587.05 1035.16 3594.23 1035.16 3601.4 1035.16 3607.22 1040.97 3607.23 1048.15L3603.51 1048.16C3603.51 1043.03 3599.35 1038.87 3594.23 1038.87 3589.1 1038.87 3584.94 1043.03 3584.94 1048.16 3584.94 1053.29 3589.1 1057.44 3594.23 1057.44 3599.35 1057.44 3603.51 1053.29 3603.51 1048.17Z" fill="#FFFFFF" fill-rule="evenodd"/><path d="M3603.22 1048.66C3603.22 1053.91 3599.19 1058.16 3594.22 1058.16 3589.25 1058.16 3585.22 1053.91 3585.22 1048.66 3585.22 1043.42 3589.25 1039.16 3594.22 1039.16 3599.19 1039.16 3603.21 1043.41 3603.22 1048.65Z" fill="#C74440" fill-rule="evenodd"/><path d="M3473.21 932.141C3473.21 939.32 3467.38 945.141 3460.21 945.141 3453.03 945.141 3447.21 939.32 3447.21 932.141 3447.21 924.96 3453.03 919.141 3460.21 919.141 3467.38 919.141 3473.2 924.953 3473.21 932.126L3469.49 932.141C3469.49 927.013 3465.33 922.855 3460.21 922.855 3455.08 922.855 3450.92 927.013 3450.92 932.141 3450.92 937.269 3455.08 941.427 3460.21 941.427 3465.33 941.427 3469.49 937.274 3469.49 932.148Z" fill="#FFFFFF" fill-rule="evenodd"/><path d="M3469.2 932.645C3469.2 937.891 3465.17 942.144 3460.2 942.144 3455.23 942.144 3451.2 937.891 3451.2 932.645 3451.2 927.398 3455.23 923.144 3460.2 923.144 3465.17 923.144 3469.2 927.39 3469.2 932.634Z" fill="#C74440" fill-rule="evenodd"/><path d="M3339.19 816.124C3339.19 823.303 3333.37 829.124 3326.19 829.124 3319.01 829.124 3313.19 823.303 3313.19 816.124 3313.19 808.944 3319.01 803.124 3326.19 803.124 3333.36 803.124 3339.18 808.936 3339.19 816.112L3335.47 816.124C3335.47 810.996 3331.32 806.839 3326.19 806.839 3321.06 806.839 3316.9 810.996 3316.9 816.124 3316.9 821.253 3321.06 825.41 3326.19 825.41 3331.31 825.41 3335.47 821.257 3335.47 816.134Z" fill="#FFFFFF" fill-rule="evenodd"/><path d="M3335.19 816.121C3335.19 821.091 3330.94 825.12 3325.69 825.12 3320.44 825.12 3316.19 821.091 3316.19 816.121 3316.19 811.15 3320.44 807.12 3325.69 807.12 3330.94 807.12 3335.19 811.145 3335.19 816.111Z" fill="#C74440" fill-rule="evenodd"/><path d="M3204.17 700.107C3204.17 707.288 3198.35 713.107 3191.17 713.107 3183.99 713.107 3178.17 707.288 3178.17 700.107 3178.17 692.929 3183.99 687.107 3191.17 687.107 3198.34 687.107 3204.16 692.922 3204.17 700.095L3200.45 700.107C3200.45 694.979 3196.29 690.822 3191.17 690.822 3186.04 690.822 3181.88 694.979 3181.88 700.107 3181.88 705.236 3186.04 709.393 3191.17 709.393 3196.29 709.393 3200.45 705.243 3200.45 700.117Z" fill="#FFFFFF" fill-rule="evenodd"/><path d="M3201.17 700.104C3201.17 705.075 3196.92 709.104 3191.67 709.104 3186.42 709.104 3182.17 705.075 3182.17 700.104 3182.17 695.134 3186.42 691.104 3191.67 691.104 3196.91 691.104 3201.17 695.129 3201.17 700.097Z" fill="#C74440" fill-rule="evenodd"/><path d="M3641.23 874.133C3641.23 881.311 3635.41 887.133 3628.23 887.133 3621.05 887.133 3615.23 881.311 3615.23 874.133 3615.23 866.952 3621.05 861.133 3628.23 861.133 3635.4 861.133 3641.22 866.945 3641.23 874.12L3637.52 874.133C3637.52 869.005 3633.36 864.847 3628.23 864.847 3623.1 864.847 3618.94 869.005 3618.94 874.133 3618.94 879.261 3623.1 883.419 3628.23 883.419 3633.35 883.419 3637.51 879.266 3637.52 874.143Z" fill="#FFFFFF" fill-rule="evenodd"/><path d="M3637.24 874.129C3637.24 879.099 3632.98 883.129 3627.74 883.129 3622.49 883.129 3618.24 879.099 3618.24 874.129 3618.24 869.158 3622.49 865.129 3627.74 865.129 3632.98 865.129 3637.23 869.151 3637.24 874.119Z" fill="#C74440" fill-rule="evenodd"/><path d="M3506.21 758.116C3506.21 765.297 3500.39 771.116 3493.21 771.116 3486.03 771.116 3480.21 765.297 3480.21 758.116 3480.21 750.937 3486.03 745.116 3493.21 745.116 3500.39 745.116 3506.2 750.927 3506.21 758.103L3502.5 758.116C3502.5 752.987 3498.34 748.83 3493.21 748.83 3488.08 748.83 3483.93 752.987 3483.93 758.116 3483.93 763.244 3488.08 767.402 3493.21 767.402 3498.34 767.402 3502.49 763.251 3502.5 758.126Z" fill="#FFFFFF" fill-rule="evenodd"/><path d="M3503.22 758.112C3503.22 763.083 3498.96 767.112 3493.72 767.112 3488.47 767.112 3484.22 763.083 3484.22 758.112 3484.22 753.142 3488.47 749.112 3493.72 749.112 3498.96 749.112 3503.21 753.137 3503.22 758.103Z" fill="#C74440" fill-rule="evenodd"/></g></svg>