<svg width="927" height="806" xmlns="http://www.w3.org/2000/svg" xmlns:xlink="http://www.w3.org/1999/xlink" xml:space="preserve" overflow="hidden"><g transform="translate(-2797 -940)"><path d="M3487.16 1342.18 3487.16 1342.18 3487.16 1211.81 3484.43 1209.61 3260.16 1080.18 3033.16 1211.81 3033.16 1472.55 3035.88 1474.76 3260.16 1604.18 3487.16 1472.55 3487.16 1342.18" stroke="#000000" stroke-width="6.18786" stroke-linecap="round" stroke-linejoin="round" stroke-miterlimit="10" fill="none" fill-rule="evenodd"/><path d="M3269.15 1342.68C3269.15 1347.93 3265.12 1352.18 3260.15 1352.18 3255.18 1352.18 3251.15 1347.93 3251.15 1342.68 3251.15 1337.44 3255.18 1333.18 3260.15 1333.18 3265.12 1333.18 3269.15 1337.43 3269.15 1342.67Z" fill-rule="evenodd"/><path d="M3496.18 949.626C3496.18 954.872 3492.15 959.126 3487.18 959.126 3482.21 959.126 3478.18 954.872 3478.18 949.626 3478.18 944.379 3482.21 940.126 3487.18 940.126 3492.15 940.126 3496.18 944.375 3496.18 949.619Z" fill-rule="evenodd"/><path d="M2816.09 1342.68C2816.09 1347.93 2811.84 1352.18 2806.59 1352.18 2801.35 1352.18 2797.09 1347.93 2797.09 1342.68 2797.09 1337.44 2801.35 1333.18 2806.59 1333.18 2811.83 1333.18 2816.09 1337.43 2816.09 1342.67Z" fill-rule="evenodd"/><path d="M3496.18 1735.74C3496.18 1740.99 3492.15 1745.24 3487.18 1745.24 3482.21 1745.24 3478.18 1740.99 3478.18 1735.74 3478.18 1730.5 3482.21 1726.24 3487.18 1726.24 3492.15 1726.24 3496.18 1730.49 3496.18 1735.73Z" fill-rule="evenodd"/><path d="M3042.12 1735.74C3042.12 1740.99 3038.09 1745.24 3033.12 1745.24 3028.15 1745.24 3024.12 1740.99 3024.12 1735.74 3024.12 1730.5 3028.15 1726.24 3033.12 1726.24 3038.09 1726.24 3042.11 1730.49 3042.12 1735.73Z" fill-rule="evenodd"/><path d="M3723.22 1342.68C3723.22 1347.93 3719.19 1352.18 3714.22 1352.18 3709.25 1352.18 3705.22 1347.93 3705.22 1342.68 3705.22 1337.44 3709.25 1333.18 3714.22 1333.18 3719.18 1333.18 3723.21 1337.43 3723.22 1342.67Z" fill-rule="evenodd"/><path d="M3042.12 949.626C3042.12 954.872 3038.09 959.126 3033.12 959.126 3028.15 959.126 3024.12 954.872 3024.12 949.626 3024.12 944.379 3028.15 940.126 3033.12 940.126 3038.09 940.126 3042.11 944.375 3042.12 949.619Z" fill-rule="evenodd"/></g></svg>